<svg id="Layer_1" data-name="Layer 1" xmlns="http://www.w3.org/2000/svg" xmlns:xlink="http://www.w3.org/1999/xlink" viewBox="0 0 376.33 502.26"><defs><style>.cls-1{fill:#fff;}.cls-1,.cls-2{fill-rule:evenodd;}.cls-2{fill:#70bc7b;}.cls-3{mask:url(#mask);}.cls-4{mask:url(#mask-2-2);}.cls-5{mask:url(#mask-3);}.cls-6{mask:url(#mask-4-2);}.cls-7{mask:url(#mask-5);}</style><mask id="mask" x="23.49" y="435.1" width="30.39" height="67.16" maskUnits="userSpaceOnUse"><g transform="translate(-0.34 -0.37)"><g id="mask-2"><polygon id="path-1" class="cls-1" points="23.83 435.47 54.22 435.47 54.22 502.63 23.83 502.63 23.83 435.47"/></g></g></mask><mask id="mask-2-2" x="93.98" y="435.1" width="30.95" height="66.81" maskUnits="userSpaceOnUse"><g transform="translate(-0.34 -0.37)"><g id="mask-4"><polygon id="path-3" class="cls-1" points="94.31 435.47 125.26 435.47 125.26 502.28 94.31 502.28 94.31 435.47"/></g></g></mask><mask id="mask-3" x="205.01" y="435.1" width="30.39" height="67.16" maskUnits="userSpaceOnUse"><g transform="translate(-0.34 -0.37)"><g id="mask-6"><polygon id="path-5" class="cls-1" points="205.35 435.47 235.74 435.47 235.74 502.63 205.35 502.63 205.35 435.47"/></g></g></mask><mask id="mask-4-2" x="276.6" y="435.1" width="30.95" height="66.81" maskUnits="userSpaceOnUse"><g transform="translate(-0.34 -0.37)"><g id="mask-8"><polygon id="path-7" class="cls-1" points="276.94 435.47 307.88 435.47 307.88 502.28 276.94 502.28 276.94 435.47"/></g></g></mask><mask id="mask-5" x="345.58" y="435.1" width="30.74" height="67.16" maskUnits="userSpaceOnUse"><g transform="translate(-0.34 -0.37)"><g id="mask-10"><polygon id="path-9" class="cls-1" points="345.92 435.47 376.66 435.47 376.66 502.63 345.92 502.63 345.92 435.47"/></g></g></mask></defs><title>sportspots</title><g id="Page-1"><g id="Tablet-Copy-10"><g id="Group-2-Copy"><path id="Fill-1" class="cls-2" d="M264.55,76.37,347.67,130a81.94,81.94,0,0,1,25.67,26.42A188.78,188.78,0,0,0,286,28.33a26.6,26.6,0,0,0-21.44,48" transform="translate(-0.34 -0.37)"/><path id="Fill-3" class="cls-2" d="M109.08,107.81l178,114.31a26.78,26.78,0,1,0,29-45l-83.68-53.77A82.75,82.75,0,0,1,207.51,9.08c1.52-2.37,3.15-4.62,4.86-6.78A189.87,189.87,0,0,0,11.34,114a82.83,82.83,0,0,1,97.74-6.14" transform="translate(-0.34 -0.37)"/><path id="Fill-5" class="cls-2" d="M100,297.34,20.83,247A82.49,82.49,0,0,1,.34,228.37a187,187,0,0,0,52,95.63A194,194,0,0,0,77.8,345.18a26.64,26.64,0,0,0,30.26-11A26.51,26.51,0,0,0,100,297.34" transform="translate(-0.34 -0.37)"/><path id="Fill-7" class="cls-2" d="M370.34,243.54a82.37,82.37,0,0,1-113.72,24.69L79.43,154.59a26.72,26.72,0,0,0-36.85,8,26.62,26.62,0,0,0,7.1,36.19l.94.59,78.43,50.34a82.11,82.11,0,0,1,24.73,113.57,83.28,83.28,0,0,1-8.36,10.86,190.85,190.85,0,0,0,42.25,4.18l186.67.06,0-141.71c-1.21,2.34-2.53,4.64-4,6.88" transform="translate(-0.34 -0.37)"/><g id="Group"><g id="Group-11"><g class="cls-3"><path id="Fill-9" class="cls-2" d="M39.12,435.47c9.91,0,15,6,15,16.51V454H44.49v-2.71c0-4.69-1.85-6.47-5.1-6.47s-5.1,1.78-5.1,6.47c0,13.5,19.93,16,19.93,34.79,0,10.51-5.19,16.51-15.19,16.51s-15.2-6-15.2-16.51v-4h9.63v4.69c0,4.69,2,6.37,5.29,6.37S44,491.47,44,486.78c0-13.51-19.93-16-19.93-34.8,0-10.5,5.1-16.51,15-16.51" transform="translate(-0.34 -0.37)"/></g></g><path id="Fill-12" class="cls-2" d="M70.06,445.92v22.4H75c3.31,0,5.1-1.51,5.1-6.23v-9.93c0-4.72-1.79-6.24-5.1-6.24Zm20.42,6.9v8.61c0,10.58-5.1,16.35-15.5,16.35H70.06v24.85H59.66V436.47H75c10.4,0,15.5,5.77,15.5,16.35Z" transform="translate(-0.34 -0.37)"/><g id="Group-16"><g class="cls-4"><path id="Fill-14" class="cls-2" d="M104.51,486.51c0,4.67,2,6.44,5.28,6.44s5.28-1.77,5.28-6.44V451.24c0-4.66-2-6.44-5.28-6.44s-5.28,1.78-5.28,6.44ZM94.31,451.9c0-10.46,5.47-16.43,15.48-16.43s15.47,6,15.47,16.43v34c0,10.45-5.46,16.42-15.47,16.42s-15.48-6-15.48-16.42Z" transform="translate(-0.34 -0.37)"/></g></g><path id="Fill-17" class="cls-2" d="M143.68,445.92v20.32h4c3.83,0,6.16-1.7,6.16-7v-6.52c0-4.72-1.58-6.81-5.22-6.81Zm11.2,56.71c-.56-1.7-.93-2.74-.93-8.13V484.1c0-6.14-2.06-8.41-6.72-8.41h-3.55v26.94H133.41V436.47h15.5c10.64,0,15.21,5,15.21,15.22v5.2c0,6.81-2.14,11.25-6.72,13.42,5.13,2.17,6.82,7.18,6.82,14.08V494.6c0,3.21.09,5.58,1.12,8Z" transform="translate(-0.34 -0.37)"/><polygon id="Fill-19" class="cls-2" points="166.1 436.1 198.02 436.1 198.02 445.55 187.23 445.55 187.23 502.26 176.9 502.26 176.9 445.55 166.1 445.55 166.1 436.1"/><g id="Group-23"><g class="cls-5"><path id="Fill-21" class="cls-2" d="M220.64,435.47c9.91,0,15,6,15,16.51V454H226v-2.71c0-4.69-1.85-6.47-5.1-6.47s-5.1,1.78-5.1,6.47c0,13.5,19.93,16,19.93,34.79,0,10.51-5.19,16.51-15.2,16.51s-15.19-6-15.19-16.51v-4H215v4.69c0,4.69,2,6.37,5.29,6.37s5.28-1.68,5.28-6.37c0-13.51-19.93-16-19.93-34.8,0-10.5,5.1-16.51,15-16.51" transform="translate(-0.34 -0.37)"/></g></g><path id="Fill-24" class="cls-2" d="M252.79,445.92v22.4h4.92c3.31,0,5.1-1.51,5.1-6.23v-9.93c0-4.72-1.79-6.24-5.1-6.24Zm20.42,6.9v8.61c0,10.58-5.1,16.35-15.5,16.35h-4.92v24.85h-10.4V436.47h15.32c10.4,0,15.5,5.77,15.5,16.35Z" transform="translate(-0.34 -0.37)"/><g id="Group-28"><g class="cls-6"><path id="Fill-26" class="cls-2" d="M287.13,486.51c0,4.67,2,6.44,5.28,6.44s5.28-1.77,5.28-6.44V451.24c0-4.66-2-6.44-5.28-6.44s-5.28,1.78-5.28,6.44Zm-10.2-34.61c0-10.46,5.47-16.43,15.48-16.43s15.48,6,15.48,16.43v34c0,10.45-5.47,16.42-15.48,16.42s-15.48-6-15.48-16.42Z" transform="translate(-0.34 -0.37)"/></g></g><polygon id="Fill-29" class="cls-2" points="310.3 436.1 342.22 436.1 342.22 445.55 331.43 445.55 331.43 502.26 321.1 502.26 321.1 445.55 310.3 445.55 310.3 436.1"/><g id="Group-33"><g class="cls-7"><path id="Fill-31" class="cls-2" d="M361.38,435.47c10,0,15.19,6,15.19,16.51V454h-9.75v-2.71c0-4.69-1.87-6.47-5.15-6.47s-5.16,1.78-5.16,6.47c0,13.5,20.15,16,20.15,34.79,0,10.51-5.25,16.51-15.37,16.51s-15.37-6-15.37-16.51v-4h9.75v4.69c0,4.69,2.06,6.37,5.34,6.37s5.34-1.68,5.34-6.37c0-13.51-20.15-16-20.15-34.8,0-10.5,5.16-16.51,15.18-16.51" transform="translate(-0.34 -0.37)"/></g></g></g></g></g></g></svg>