<svg width="377px" height="503px" viewBox="0 0 377 503" version="1.1" xmlns="http://www.w3.org/2000/svg" xmlns:xlink="http://www.w3.org/1999/xlink" style="background: #8D4747;">
    <defs>
        <polygon id="path-1" points="0.527298123 0.104904282 31.4779857 0.104904282 31.4779857 66.9086006 0.527298123 66.9086006"></polygon>
        <polygon id="path-3" points="0.491951446 0.103928852 30.8842893 0.103928852 30.8842893 67.2605042 0.491951446 67.2605042"></polygon>
    </defs>
    <g id="Page-1" stroke="none" stroke-width="1" fill="none" fill-rule="evenodd">
        <path d="M108.738129,107.444691 L286.727449,221.750269 C299.15398,229.739941 315.758199,226.133175 323.740704,213.707332 C327.606398,207.696055 328.900036,200.528177 327.378109,193.542921 C325.863792,186.550056 321.708932,180.576824 315.697322,176.711345 L232.014186,122.937046 C193.669244,98.2908097 182.521132,47.0503785 207.168734,8.70756101 C208.69066,6.34109619 210.319122,4.08876954 212.031289,1.92775343 C154.844896,-6.25214909 94.6146494,11.5990614 50.7146756,55.4966034 C33.7071454,72.5031915 20.3674584,92.1958312 11,113.577716 C37.9989785,91.0240126 77.6147288,87.4476831 108.738129,107.444691" id="upper_left" fill="#2F2F2F" fill-rule="nonzero"></path>
        <path d="M99.6372464,296.971412 L20.4960189,246.590779 C12.5177028,241.509552 5.67805446,235.186415 0,228 C7.36695087,263.992657 25.188247,297.069856 51.9889697,323.62703 C59.9443596,331.502554 68.4805465,338.545089 77.4599731,344.815217 C81.7624558,346.09499 86.3018426,346.397895 90.810661,345.4286 C97.8260769,343.914076 103.83274,339.786999 107.722551,333.797057 C111.604721,327.807116 112.903872,320.681281 111.375459,313.722045 C109.847046,306.770381 105.68212,300.818302 99.6372464,296.971412" id="bottom_left" fill="#2F2F2F" fill-rule="nonzero"></path>
        <path d="M264.211575,76.002614 L347.337361,129.576828 C357.965246,136.43093 366.612686,145.491387 373,156 C366.310328,118.16596 348.342701,83.304053 320.75253,55.6374374 C309.958347,44.8103814 298.143707,35.6134495 285.64876,27.9632398 C274.726076,24.9531969 262.654431,29.0853716 256.214205,39.1314844 C248.284865,51.5052627 251.875367,68.0491254 264.211575,76.002614" id="upper_right" fill="#E86C2A" fill-rule="nonzero"></path>
        <path d="M370.007641,243.167877 C358.121471,261.634196 339.742984,274.373763 318.266062,279.033842 C296.789139,283.701486 274.774347,279.729828 256.282225,267.860243 L79.0881486,154.225428 C66.7171385,146.282111 50.1871053,149.867951 42.2402654,162.214134 C38.3918434,168.1981 37.1039856,175.316824 38.6191124,182.269117 C40.0509072,188.858287 43.8462998,194.547215 49.34621,198.397832 L50.2855886,198.995472 L128.708551,249.333403 C147.200673,261.202988 159.95804,279.555831 164.632206,301.002786 C169.298797,322.44974 165.321589,344.433814 153.442995,362.900134 C150.943036,366.781011 148.132476,370.397111 145.087071,373.755999 C158.776241,376.668549 172.904799,378.128606 187.328806,377.939479 L374,378 L373.969697,236.291234 C372.765172,238.628839 371.447011,240.928618 370.007641,243.167877" id="bottom_right" fill="#E86C2A" fill-rule="nonzero"></path>
        <g id="Lettering" transform="translate(23.000000, 435.000000)">
            <path d="M338.04694,0.103928852 C348.075381,0.103928852 353.23461,6.10571036 353.23461,16.6126459 L353.23461,18.6743266 L343.48092,18.6743266 L343.48092,15.9559625 C343.48092,11.2675479 341.611082,9.48839384 338.329324,9.48839384 C335.047566,9.48839384 333.170095,11.2675479 333.170095,15.9559625 C333.170095,29.4637888 353.326193,31.9912566 353.326193,50.7525507 C353.326193,61.2594863 348.075381,67.2612678 337.955356,67.2612678 C327.827699,67.2612678 322.584518,61.2594863 322.584518,50.7525507 L322.584518,46.7208196 L332.330576,46.7208196 L332.330576,51.4092342 C332.330576,56.0976487 334.391214,57.7851725 337.672972,57.7851725 C340.95473,57.7851725 343.015369,56.0976487 343.015369,51.4092342 C343.015369,37.9014078 322.85927,35.3739401 322.85927,16.6126459 C322.85927,6.10571036 328.018499,0.103928852 338.04694,0.103928852" id="&quot;S&quot;" fill="#E86C2A" fill-rule="nonzero"></path>
            <polygon id="&quot;T&quot;" fill="#E86C2A" fill-rule="nonzero" points="287.300573 1.10263122 319.222859 1.10263122 319.222859 10.5515575 308.429213 10.5515575 308.429213 67.2605042 298.101864 67.2605042 298.101864 10.5515575 287.300573 10.5515575"></polygon>
            <path d="M263.791316,51.1417828 C263.791316,55.8056678 265.828539,57.5831094 269.073004,57.5831094 C272.317469,57.5831094 274.354691,55.8056678 274.354691,51.1417828 L274.354691,15.8740009 C274.354691,11.2101158 272.317469,9.43267431 269.073004,9.43267431 C265.828539,9.43267431 263.791316,11.2101158 263.791316,15.8740009 L263.791316,51.1417828 Z M253.59766,16.5272486 C253.59766,6.07528477 259.067979,0.104904282 269.073004,0.104904282 C279.085574,0.104904282 284.548347,6.07528477 284.548347,16.5272486 L284.548347,50.4885351 C284.548347,60.9404989 279.085574,66.9108794 269.073004,66.9108794 C259.067979,66.9108794 253.59766,60.9404989 253.59766,50.4885351 L253.59766,16.5272486 Z" id="&quot;O&quot;" fill="#E86C2A" fill-rule="nonzero"></path>
            <path d="M229.452495,10.5515575 L229.452495,32.9504373 L234.371314,32.9504373 C237.681317,32.9504373 239.474877,31.4423024 239.474877,26.7178393 L239.474877,16.79185 C239.474877,12.0673869 237.681317,10.5515575 234.371314,10.5515575 L229.452495,10.5515575 Z M249.874445,17.4535826 L249.874445,26.0561067 C249.874445,36.6361341 244.770882,42.4070581 234.371314,42.4070581 L229.452495,42.4070581 L229.452495,67.2605042 L219.052927,67.2605042 L219.052927,1.10263122 L234.371314,1.10263122 C244.770882,1.10263122 249.874445,6.86586067 249.874445,17.4535826 L249.874445,17.4535826 Z" id="&quot;P&quot;" fill="#E86C2A" fill-rule="nonzero"></path>
            <path d="M197.29832,0.103928852 C207.212801,0.103928852 212.313402,6.10571036 212.313402,16.6126459 L212.313402,18.6743266 L202.67055,18.6743266 L202.67055,15.9559625 C202.67055,11.2675479 200.82196,9.48839384 197.577495,9.48839384 C194.33303,9.48839384 192.476894,11.2675479 192.476894,15.9559625 C192.476894,29.4637888 212.403945,31.9912566 212.403945,50.7525507 C212.403945,61.2594863 207.212801,67.2612678 197.207777,67.2612678 C187.195206,67.2612678 182.011608,61.2594863 182.011608,50.7525507 L182.011608,46.7208196 L191.646914,46.7208196 L191.646914,51.4092342 C191.646914,56.0976487 193.684137,57.7851725 196.928602,57.7851725 C200.173067,57.7851725 202.210289,56.0976487 202.210289,51.4092342 C202.210289,37.9014078 182.283237,35.3739401 182.283237,16.6126459 C182.283237,6.10571036 187.383838,0.103928852 197.29832,0.103928852" id="&quot;S&quot;" fill="#E86C2A" fill-rule="nonzero"></path>
            <polygon id="&quot;T&quot;" fill="#1F1410" fill-rule="nonzero" points="143.099902 1.10263122 175.022188 1.10263122 175.022188 10.5515575 164.228542 10.5515575 164.228542 67.2605042 153.901193 67.2605042 153.901193 10.5515575 143.099902 10.5515575"></polygon>
            <path d="M120.342739,10.5515575 L120.342739,30.8729046 L124.354871,30.8729046 C128.184634,30.8729046 130.517445,29.1724057 130.517445,23.8785447 L130.517445,17.3612478 C130.517445,12.6367847 128.92931,10.5515575 125.289516,10.5515575 L120.342739,10.5515575 Z M131.543274,67.2605042 C130.980968,65.5600053 130.616229,64.5212389 130.616229,59.1350432 L130.616229,48.7319908 C130.616229,42.5917277 128.556972,40.3218309 123.891348,40.3218309 L120.342739,40.3218309 L120.342739,67.2605042 L110.076848,67.2605042 L110.076848,1.10263122 L125.570669,1.10263122 C136.208898,1.10263122 140.783336,6.11179327 140.783336,16.3224815 L140.783336,21.5163131 C140.783336,28.3260035 138.640493,32.7657677 134.066054,34.9356351 C139.195201,37.1131971 140.88212,42.1223592 140.88212,49.0243843 L140.88212,59.227378 C140.88212,62.4437063 140.973305,64.8059379 141.999134,67.2605042 L131.543274,67.2605042 Z" id="&quot;R&quot;" fill="#1F1410" fill-rule="nonzero"></path>
            <g id="&quot;O&quot;" transform="translate(70.449183, 0.000000)">
                <g id="Fill-14-Clipped">
                    <mask id="mask-2" fill="white">
                        <use xlink:href="#path-1"></use>
                    </mask>
                    <g id="path-3"></g>
                    <path d="M10.7209546,51.1417828 C10.7209546,55.8056678 12.7581769,57.5831094 16.0026419,57.5831094 C19.247107,57.5831094 21.2843292,55.8056678 21.2843292,51.1417828 L21.2843292,15.8740009 C21.2843292,11.2101158 19.247107,9.43267431 16.0026419,9.43267431 C12.7581769,9.43267431 10.7209546,11.2101158 10.7209546,15.8740009 L10.7209546,51.1417828 Z M0.527298123,16.5272486 C0.527298123,6.07528477 5.99761712,0.104904282 16.0026419,0.104904282 C26.015212,0.104904282 31.4779857,6.07528477 31.4779857,16.5272486 L31.4779857,50.4885351 C31.4779857,60.9404989 26.015212,66.9108794 16.0026419,66.9108794 C5.99761712,66.9108794 0.527298123,60.9404989 0.527298123,50.4885351 L0.527298123,16.5272486 Z" id="Fill-14" fill="#1F1410" fill-rule="nonzero" mask="url(#mask-2)"></path>
                </g>
            </g>
            <path d="M46.7249278,10.5515575 L46.7249278,32.9504373 L51.6437464,32.9504373 C54.9537495,32.9504373 56.7473093,31.4423024 56.7473093,26.7178393 L56.7473093,16.79185 C56.7473093,12.0673869 54.9537495,10.5515575 51.6437464,10.5515575 L46.7249278,10.5515575 Z M67.1468773,17.4535826 L67.1468773,26.0561067 C67.1468773,36.6361341 62.0433143,42.4070581 51.6437464,42.4070581 L46.7249278,42.4070581 L46.7249278,67.2605042 L36.3253598,67.2605042 L36.3253598,1.10263122 L51.6437464,1.10263122 C62.0433143,1.10263122 67.1468773,6.86586067 67.1468773,17.4535826 L67.1468773,17.4535826 Z" id="&quot;P&quot;" fill="#1F1410" fill-rule="nonzero"></path>
            <g id="&quot;S&quot;">
                <g id="Fill-9-Clipped">
                    <mask id="mask-4" fill="white">
                        <use xlink:href="#path-3"></use>
                    </mask>
                    <g id="path-1"></g>
                    <path d="M15.7786636,0.103928852 C25.6931452,0.103928852 30.793746,6.10571036 30.793746,16.6126459 L30.793746,18.6743266 L21.1508941,18.6743266 L21.1508941,15.9559625 C21.1508941,11.2675479 19.3023035,9.48839384 16.0578385,9.48839384 C12.8133734,9.48839384 10.9572376,11.2675479 10.9572376,15.9559625 C10.9572376,29.4637888 30.8842893,31.9912566 30.8842893,50.7525507 C30.8842893,61.2594863 25.6931452,67.2612678 15.6881204,67.2612678 C5.67555027,67.2612678 0.491951446,61.2594863 0.491951446,50.7525507 L0.491951446,46.7208196 L10.1272581,46.7208196 L10.1272581,51.4092342 C10.1272581,56.0976487 12.1644804,57.7851725 15.4089454,57.7851725 C18.6534105,57.7851725 20.6906328,56.0976487 20.6906328,51.4092342 C20.6906328,37.9014078 0.763581079,35.3739401 0.763581079,16.6126459 C0.763581079,6.10571036 5.86418196,0.103928852 15.7786636,0.103928852" id="Fill-9" fill="#1F1410" fill-rule="nonzero" mask="url(#mask-4)"></path>
                </g>
            </g>
        </g>
    </g>
</svg>
